<?xml version="1.0" encoding="UTF-8" standalone="no"?>
<!-- Created with Inkscape (http://www.inkscape.org/) -->

<svg
   xmlns:osb="http://www.openswatchbook.org/uri/2009/osb"
   xmlns:dc="http://purl.org/dc/elements/1.1/"
   xmlns:cc="http://creativecommons.org/ns#"
   xmlns:rdf="http://www.w3.org/1999/02/22-rdf-syntax-ns#"
   xmlns:svg="http://www.w3.org/2000/svg"
   xmlns="http://www.w3.org/2000/svg"
   xmlns:xlink="http://www.w3.org/1999/xlink"
   xmlns:sodipodi="http://sodipodi.sourceforge.net/DTD/sodipodi-0.dtd"
   xmlns:inkscape="http://www.inkscape.org/namespaces/inkscape"
   width="500"
   height="500"
   viewBox="0 0 500.00001 500.00001"
   id="svg2"
   version="1.1"
   inkscape:version="0.91 r13725"
   sodipodi:docname="CLUG_Logo_1.svg">
  <defs
     id="defs4">
    <linearGradient
       id="linearGradient4148"
       osb:paint="solid">
      <stop
         style="stop-color:#000000;stop-opacity:1;"
         offset="0"
         id="stop4150" />
    </linearGradient>
    <linearGradient
       id="linearGradient3722">
      <stop
         offset="0"
         style="stop-color: rgb(253, 253, 1); stop-opacity: 1;"
         id="stop3724" />
      <stop
         offset="1"
         style="stop-color: rgb(253, 202, 1); stop-opacity: 1;"
         id="stop3726" />
    </linearGradient>
    <linearGradient
       id="linearGradient3700">
      <stop
         offset="0"
         style="stop-color: rgb(255, 255, 255); stop-opacity: 1;"
         id="stop3702" />
      <stop
         offset="1"
         style="stop-color: rgb(255, 255, 255); stop-opacity: 0;"
         id="stop3704" />
    </linearGradient>
    <linearGradient
       id="linearGradient3672">
      <stop
         offset="0"
         style="stop-color: rgb(227, 227, 227); stop-opacity: 1;"
         id="stop3674" />
      <stop
         offset="1"
         style="stop-color: rgb(227, 227, 227); stop-opacity: 0;"
         id="stop3676" />
    </linearGradient>
    <linearGradient
       id="linearGradient3492">
      <stop
         offset="0"
         style="stop-color: rgb(255, 255, 255); stop-opacity: 1;"
         id="stop3494" />
      <stop
         offset="1"
         style="stop-color: rgb(170, 170, 170); stop-opacity: 1;"
         id="stop3496" />
    </linearGradient>
    <linearGradient
       id="linearGradient3208">
      <stop
         offset="0"
         style="stop-color: rgb(255, 255, 255); stop-opacity: 1;"
         id="stop3210" />
      <stop
         offset="1"
         style="stop-color: rgb(204, 204, 207); stop-opacity: 1;"
         id="stop3212" />
    </linearGradient>
    <linearGradient
       id="linearGradient3184">
      <stop
         offset="0"
         style="stop-color: rgb(255, 255, 255); stop-opacity: 1;"
         id="stop3186" />
      <stop
         offset="1"
         style="stop-color: rgb(220, 220, 220); stop-opacity: 1;"
         id="stop3188" />
    </linearGradient>
    <linearGradient
       gradientUnits="userSpaceOnUse"
       xlink:href="#linearGradient3700"
       id="linearGradient3969"
       y2="-922.1275"
       x2="155.83324"
       y1="-1041.839"
       x1="665.18915" />
    <linearGradient
       gradientUnits="userSpaceOnUse"
       xlink:href="#linearGradient3700"
       id="linearGradient3971"
       y2="-1206.8317"
       x2="-82.919495"
       y1="-1318.3226"
       x1="-37.086895" />
    <radialGradient
       gradientTransform="matrix(1.59198,-0.0359485,0.0568069,2.5157,465.296,2344.39)"
       gradientUnits="userSpaceOnUse"
       xlink:href="#linearGradient3492"
       id="radialGradient3973"
       fy="-1545.9235"
       fx="-626.23035"
       r="100.40916"
       cy="-1545.9235"
       cx="-626.23035" />
    <linearGradient
       gradientUnits="userSpaceOnUse"
       xlink:href="#linearGradient3700"
       id="linearGradient3975"
       y2="-1381.4994"
       x2="-359.21024"
       y1="-1586.5603"
       x1="-503.46002" />
    <linearGradient
       gradientUnits="userSpaceOnUse"
       xlink:href="#linearGradient3700"
       id="linearGradient3977"
       y2="-1462.1381"
       x2="-168.86012"
       y1="-1520.5897"
       x1="-199.16835" />
    <radialGradient
       gradientTransform="matrix(1.59198,-0.0359485,0.0568069,2.5157,465.296,2344.39)"
       gradientUnits="userSpaceOnUse"
       xlink:href="#linearGradient3492"
       id="radialGradient3979"
       fy="-1545.9235"
       fx="-626.23035"
       r="100.40916"
       cy="-1545.9235"
       cx="-626.23035" />
    <linearGradient
       gradientUnits="userSpaceOnUse"
       xlink:href="#linearGradient3700"
       id="linearGradient3985"
       y2="-1321.5878"
       x2="-125.39677"
       y1="-1639.3741"
       x1="87.605965" />
    <radialGradient
       gradientTransform="matrix(1.50116,0,0,2.29861,-23.3083,1028.24)"
       gradientUnits="userSpaceOnUse"
       xlink:href="#linearGradient3672"
       id="radialGradient3987"
       fy="-728.88739"
       fx="46.50877"
       r="330.45697"
       cy="-728.88739"
       cx="46.50877" />
    <linearGradient
       gradientUnits="userSpaceOnUse"
       xlink:href="#linearGradient3700"
       id="linearGradient3989"
       y2="-814.42957"
       x2="-81.392899"
       y1="-882.15875"
       x1="164.9572" />
    <radialGradient
       gradientTransform="matrix(1,0,0,0.691319,0,-162.704)"
       gradientUnits="userSpaceOnUse"
       xlink:href="#linearGradient3722"
       id="radialGradient3991"
       fy="-477.66748"
       fx="221.79845"
       r="135.20599"
       cy="-477.66748"
       cx="221.79845" />
    <linearGradient
       gradientUnits="userSpaceOnUse"
       xlink:href="#linearGradient3700"
       id="linearGradient3993"
       y2="-1500.7866"
       x2="-700.50537"
       y1="-1672.3027"
       x1="-845.46411" />
    <radialGradient
       gradientTransform="matrix(1,0,0,0.746003,0,-136.583)"
       gradientUnits="userSpaceOnUse"
       xlink:href="#linearGradient3722"
       id="radialGradient3995"
       fy="-487.67856"
       fx="177.18466"
       r="135.20599"
       cy="-487.67856"
       cx="177.18466" />
    <linearGradient
       gradientUnits="userSpaceOnUse"
       xlink:href="#linearGradient3700"
       id="linearGradient3997"
       y2="-1511.9891"
       x2="-767.42603"
       y1="-1646.1636"
       x1="-678.67603" />
    <style
       id="style4685"
       type="text/css"><![CDATA[
    .str0 {stroke:black}
    .fil0 {fill:black}
   ]]></style>
    <linearGradient
       gradientUnits="userSpaceOnUse"
       xlink:href="#linearGradient3700"
       id="linearGradient3969-5"
       y2="-922.1275"
       x2="155.83324"
       y1="-1041.839"
       x1="665.18915" />
    <linearGradient
       gradientUnits="userSpaceOnUse"
       xlink:href="#linearGradient3700"
       id="linearGradient3971-9"
       y2="-1206.8317"
       x2="-82.919495"
       y1="-1318.3226"
       x1="-37.086895" />
    <radialGradient
       gradientTransform="matrix(1.59198,-0.0359485,0.0568069,2.5157,465.296,2344.39)"
       gradientUnits="userSpaceOnUse"
       xlink:href="#linearGradient3492"
       id="radialGradient3973-7"
       fy="-1545.9235"
       fx="-626.23035"
       r="100.40916"
       cy="-1545.9235"
       cx="-626.23035" />
    <linearGradient
       gradientUnits="userSpaceOnUse"
       xlink:href="#linearGradient3700"
       id="linearGradient3975-4"
       y2="-1381.4994"
       x2="-359.21024"
       y1="-1586.5603"
       x1="-503.46002" />
    <linearGradient
       gradientUnits="userSpaceOnUse"
       xlink:href="#linearGradient3700"
       id="linearGradient3977-7"
       y2="-1462.1381"
       x2="-168.86012"
       y1="-1520.5897"
       x1="-199.16835" />
    <radialGradient
       gradientTransform="matrix(1.59198,-0.0359485,0.0568069,2.5157,465.296,2344.39)"
       gradientUnits="userSpaceOnUse"
       xlink:href="#linearGradient3492"
       id="radialGradient3979-8"
       fy="-1545.9235"
       fx="-626.23035"
       r="100.40916"
       cy="-1545.9235"
       cx="-626.23035" />
    <linearGradient
       gradientUnits="userSpaceOnUse"
       xlink:href="#linearGradient3700"
       id="linearGradient3981"
       y2="-1381.4994"
       x2="-359.21024"
       y1="-1586.5603"
       x1="-503.46002" />
    <linearGradient
       gradientUnits="userSpaceOnUse"
       xlink:href="#linearGradient3700"
       id="linearGradient3983"
       y2="-1462.1381"
       x2="-168.86012"
       y1="-1520.5897"
       x1="-199.16835" />
    <linearGradient
       gradientUnits="userSpaceOnUse"
       xlink:href="#linearGradient3700"
       id="linearGradient3985-3"
       y2="-1321.5878"
       x2="-125.39677"
       y1="-1639.3741"
       x1="87.605965" />
    <radialGradient
       gradientTransform="matrix(1.50116,0,0,2.29861,-23.3083,1028.24)"
       gradientUnits="userSpaceOnUse"
       xlink:href="#linearGradient3672"
       id="radialGradient3987-0"
       fy="-728.88739"
       fx="46.50877"
       r="330.45697"
       cy="-728.88739"
       cx="46.50877" />
    <linearGradient
       gradientUnits="userSpaceOnUse"
       xlink:href="#linearGradient3700"
       id="linearGradient3989-7"
       y2="-814.42957"
       x2="-81.392899"
       y1="-882.15875"
       x1="164.9572" />
    <radialGradient
       gradientTransform="matrix(1,0,0,0.691319,0,-162.704)"
       gradientUnits="userSpaceOnUse"
       xlink:href="#linearGradient3722"
       id="radialGradient3991-6"
       fy="-477.66748"
       fx="221.79845"
       r="135.20599"
       cy="-477.66748"
       cx="221.79845" />
    <linearGradient
       gradientUnits="userSpaceOnUse"
       xlink:href="#linearGradient3700"
       id="linearGradient3993-6"
       y2="-1500.7866"
       x2="-700.50537"
       y1="-1672.3027"
       x1="-845.46411" />
    <radialGradient
       gradientTransform="matrix(1,0,0,0.746003,0,-136.583)"
       gradientUnits="userSpaceOnUse"
       xlink:href="#linearGradient3722"
       id="radialGradient3995-5"
       fy="-487.67856"
       fx="177.18466"
       r="135.20599"
       cy="-487.67856"
       cx="177.18466" />
    <linearGradient
       gradientUnits="userSpaceOnUse"
       xlink:href="#linearGradient3700"
       id="linearGradient3997-3"
       y2="-1511.9891"
       x2="-767.42603"
       y1="-1646.1636"
       x1="-678.67603" />
  </defs>
  <sodipodi:namedview
     id="base"
     pagecolor="#ffffff"
     bordercolor="#666666"
     borderopacity="1.0"
     inkscape:pageopacity="0.0"
     inkscape:pageshadow="2"
     inkscape:zoom="1.4"
     inkscape:cx="132.84225"
     inkscape:cy="260.34962"
     inkscape:document-units="px"
     inkscape:current-layer="layer1"
     showgrid="false"
     units="px"
     inkscape:window-width="1920"
     inkscape:window-height="1029"
     inkscape:window-x="1919"
     inkscape:window-y="0"
     inkscape:window-maximized="1" />
  <metadata
     id="metadata7">
    <rdf:RDF>
      <cc:Work
         rdf:about="">
        <dc:format>image/svg+xml</dc:format>
        <dc:type
           rdf:resource="http://purl.org/dc/dcmitype/StillImage" />
        <dc:title></dc:title>
      </cc:Work>
    </rdf:RDF>
  </metadata>
  <g
     inkscape:label="Layer 1"
     inkscape:groupmode="layer"
     id="layer1"
     transform="translate(0,-552.36216)">
    <circle
       style="fill:#0097ff;fill-opacity:1;fill-rule:evenodd;stroke:#000000;stroke-width:14.52700043;stroke-linecap:butt;stroke-linejoin:miter;stroke-miterlimit:4;stroke-dasharray:none;stroke-opacity:1"
       id="path3336"
       cx="256.42856"
       cy="800.93359"
       r="189.98653" />
    <flowRoot
       xml:space="preserve"
       id="flowRoot4212"
       style="fill:black;stroke:none;stroke-opacity:1;stroke-width:1px;stroke-linejoin:miter;stroke-linecap:butt;fill-opacity:1;font-family:sans-serif;font-style:normal;font-weight:normal;font-size:40px;line-height:125%;letter-spacing:0px;word-spacing:0px"><flowRegion
         id="flowRegion4214"><rect
           id="rect4216"
           width="385.71429"
           height="121.42857"
           x="-201.42857"
           y="349.28571" /></flowRegion><flowPara
         id="flowPara4218"></flowPara></flowRoot>    <circle
       style="fill:#000000;fill-opacity:0;stroke-width:14.52700043;stroke-miterlimit:4;stroke-dasharray:none"
       id="path4220"
       cx="-257.5"
       cy="802.00507"
       r="158.21429"
       transform="scale(-1,1)" />
    <text
       xml:space="preserve"
       style="font-style:normal;font-weight:normal;font-size:40px;line-height:125%;font-family:sans-serif;letter-spacing:0px;word-spacing:0px;fill:#000000;fill-opacity:1;stroke:none;stroke-width:1px;stroke-linecap:butt;stroke-linejoin:miter;stroke-opacity:1"
       id="text4250"
       sodipodi:linespacing="125%"
       x="-185.71428"
       y="-268.57144"
       transform="matrix(-0.28662382,-0.95804321,0.95804321,-0.28662382,-437.81771,1320.1557)"><textPath
         xlink:href="#path3336"
         id="textPath4256"><tspan
   id="tspan4252"><tspan
     id="tspan4254"
     y="600.08844"
     x="-490.71429">CLUG</tspan></tspan></textPath></text>
    <text
       xml:space="preserve"
       style="font-style:normal;font-weight:normal;font-size:40px;line-height:125%;font-family:sans-serif;letter-spacing:0px;word-spacing:0px;fill:#000000;fill-opacity:1;stroke:none;stroke-width:1px;stroke-linecap:butt;stroke-linejoin:miter;stroke-opacity:1"
       id="text4288"
       sodipodi:linespacing="125%"
       transform="matrix(0.79455044,-0.60719816,0.60719816,0.79455044,-435.26976,335.43273)"><textPath
         xlink:href="#path4220"
         id="textPath4294"><tspan
   id="tspan4290"><tspan
     id="tspan4292"
     y="1029.3744"
     x="129.28488">Cochise Linux</tspan></tspan></textPath></text>
    <g
       style="clip-rule:evenodd;fill-rule:evenodd;image-rendering:optimizeQuality;shape-rendering:geometricPrecision;text-rendering:geometricPrecision"
       id="g4696"
       transform="matrix(0.02546317,0,0,0.02475438,160.28553,679.77472)">
      <g
         id="Layer_x0020_1">
        <metadata
           id="CorelCorpID_0Corel-Layer" />
        <path
           id="path4689"
           d="m 6521,82 c -88,8 -176,100 -236,156 -428,395 -444,306 -698,518 -176,148 -246,148 -489,354 -255,217 -221,223 -577,391 -191,92 -368,175 -538,299 -20,15 -293,213 -321,220 -38,8 -98,-58 -123,-76 -273,-199 -475,-294 -739,-543 -192,-183 -299,-321 -522,-488 -55,-42 -502,-373 -551,-395 -137,-62 -261,46 -379,102 -166,80 -254,92 -408,216 -109,90 -202,185 -293,295 -245,293 -339,183 -605,420 -183,163 -413,266 -563,466 -140,185 -248,141 -399,255 -184,142 -352,337 -568,430 -164,68 -324,143 -491,204 -252,92 -354,378 -531,555 -22,23 -114,167 -150,114 -52,-80 -100,-70 -102,-141 -2,-73 148,2 142,-69 -6,-74 -119,-92 -132,-198 -12,-109 -85,-33 -60,-193 32,-212 -71,-239 -73,-19 -1,248 -157,289 -152,387 4,57 122,-22 63,62 -58,84 39,45 55,60 25,23 -11,132 -24,153 -52,86 -131,120 -182,224 -43,86 -176,146 -163,225 21,133 197,-94 212,18 7,57 -46,199 85,105 15,-11 50,-37 51,0 12,352 -77,330 -168,405 -49,42 -205,196 -253,246 -61,64 -115,188 12,101 112,-77 -8,166 -16,179 -6,12 -163,247 -29,191 61,-26 153,-129 45,87 -168,335 92,60 320,-91 83,-57 44,65 46,120 3,69 29,400 -14,453 -38,49 -289,66 -216,165 67,90 -133,104 -154,219 -8,41 46,37 18,98 -53,118 166,3 190,-8 76,-35 -68,139 -2,185 41,28 294,-48 366,-42 65,4 96,161 118,213 26,58 94,256 33,310 -32,29 -132,19 -171,23 -74,8 -335,40 -367,124 -23,60 -93,71 -49,117 49,52 278,36 259,110 -26,107 -287,234 -238,326 25,48 176,24 239,29 57,4 105,7 160,-5 123,-26 58,94 140,115 150,36 312,-8 463,-4 194,6 344,9 536,48 309,63 336,-86 603,-58 203,21 178,-133 335,-125 220,12 231,-92 551,-33 330,59 643,56 977,60 124,2 471,63 529,-104 48,-138 -212,-143 -168,-211 55,-87 506,-27 602,-23 75,3 350,9 412,-1 60,-8 184,-23 216,-85 41,-82 -87,-111 -131,-134 -97,-52 6,-93 -240,-109 -65,-4 -339,-11 -373,-80 -22,-46 86,-68 115,-70 104,-8 275,4 385,4 189,1 373,-28 562,-30 437,-9 644,-52 1060,-94 323,-35 645,-54 965,-125 219,-50 443,-86 660,-147 23,-7 215,-54 231,-41 22,18 -149,97 -165,103 -127,48 -455,143 -535,243 -69,86 16,142 95,149 146,14 514,-42 676,-57 285,-27 569,-39 852,-86 307,-51 615,-89 923,-126 133,-17 447,-50 526,-171 94,-144 -336,-107 -229,-188 119,-90 297,-108 437,-137 337,-73 683,-98 1026,-133 67,-7 377,-44 357,-168 -13,-80 -347,-169 261,-195 138,-5 243,-29 413,-32 118,-3 223,-1 345,-12 78,-7 263,-52 206,-167 -35,-72 -90,-68 128,-190 63,-35 220,-132 214,-216 -15,-195 -25,-199 20,-408 33,-150 290,-376 279,-469 -12,-91 -119,-165 -168,-233 -94,-127 -261,-291 -324,-388 -73,-113 -197,-198 -262,-306 -114,-189 -489,-415 -672,-560 -322,-257 -618,-548 -924,-825 -204,-185 -378,-284 -610,-421 l -109,-74 C 8209,1333 8015,1256 7877,1116 7657,891 7591,833 7315,638 7109,492 7067,430 6900,282 6802,195 6660,70 6521,82 Z m -27,117 c -160,33 -357,325 -654,493 -521,296 -930,793 -1480,1021 -229,95 -388,202 -570,363 -62,56 73,114 116,147 94,68 80,-13 316,-175 298,-202 493,-236 711,-366 27,-17 173,-123 210,-74 66,87 -319,278 -366,298 -307,135 -407,244 -638,458 -42,39 21,80 91,152 41,43 353,358 402,365 47,7 268,-260 333,-195 80,79 -202,245 -185,302 6,25 401,291 450,328 109,82 186,71 301,116 70,27 137,45 202,81 92,48 -3,-103 86,-152 98,-55 246,117 177,-79 -77,-218 45,-169 111,-401 47,-164 159,-152 266,-341 80,-140 175,-268 262,-403 70,-111 4,-167 -67,-82 -86,102 -250,536 -349,502 -54,-18 -53,-31 -84,46 -40,99 -104,61 -118,-23 -12,-71 -99,42 -182,80 -123,54 -155,-49 -91,-129 42,-53 210,-220 199,-287 -8,-43 -113,79 -126,-2 -6,-41 36,-80 53,-111 37,-73 104,-268 206,-274 85,-5 85,182 34,274 -106,192 -40,217 98,-39 54,-100 22,-238 101,-386 57,-109 230,-174 204,-322 -11,-63 -145,78 -157,92 -71,77 -81,-36 -286,116 -43,32 -104,92 -165,82 -100,-16 29,-175 57,-204 199,-207 390,-227 404,-379 7,-91 -20,-143 111,-128 76,8 109,-40 60,-99 -101,-122 139,-170 71,-298 -16,-30 -67,23 -77,32 -119,123 -22,276 -423,346 -143,26 -18,104 -74,189 -73,110 -218,56 -376,196 -29,26 -149,169 -197,90 -63,-106 287,-284 350,-380 64,-95 24,-149 184,-159 113,-6 272,1 343,-137 71,-141 41,-223 188,-321 133,-89 44,-239 -32,-223 z M 1605,608 c -70,14 -135,67 -198,99 -144,71 -220,89 -355,200 -285,236 -295,396 -664,552 -127,53 -219,148 -326,229 -124,94 -254,180 -377,275 -180,140 -138,247 -409,342 -196,68 -235,141 -386,259 -128,98 -272,170 -394,276 -178,157 -67,10 -240,93 -173,81 -212,65 -350,220 -48,54 -28,71 43,40 115,-49 61,133 131,165 96,44 229,-104 265,-175 56,-110 49,-103 173,-139 332,-97 717,-464 1010,-667 109,-75 203,-167 309,-246 216,-162 304,-200 502,-414 65,-69 192,-215 269,-272 83,-60 115,23 60,90 -40,49 -146,141 -229,239 -61,75 -117,156 -186,225 -38,39 -65,54 -25,106 61,78 -88,137 -143,165 -280,152 -345,175 -644,375 -197,131 -387,269 -605,358 -119,49 -85,78 -234,150 -174,84 -200,135 -294,296 -168,287 83,161 80,316 -2,152 -52,172 280,-50 142,-95 562,-394 648,-532 52,-84 -2,-238 49,-281 57,-49 223,-187 288,-214 35,-13 108,0 7,116 -147,164 -249,118 -216,239 58,219 322,-107 539,-200 101,-44 75,43 28,88 -53,53 -397,317 -455,352 -81,50 -159,64 -224,141 -108,129 -335,313 -372,383 -78,153 288,35 198,188 -25,41 -188,205 203,-20 229,-132 447,-284 618,-486 136,-161 275,-162 421,-314 118,-123 110,-131 274,-225 62,-36 122,-75 153,-140 58,-118 -222,-61 -163,-180 27,-54 202,-164 255,-183 136,-47 102,48 247,-230 72,-137 -69,-54 -111,-11 -60,61 -384,373 -442,179 -35,-121 263,-171 334,-336 34,-79 -15,-129 -97,-110 -85,19 -132,66 -206,39 -149,-55 239,-312 294,-360 97,-85 103,-215 191,-307 89,-91 236,-123 317,-224 40,-50 -27,-105 25,-151 44,-40 83,28 124,1 66,-45 -14,-154 -2,-209 5,-24 101,-138 12,-120 z m -222,951 c -104,24 -235,204 -254,285 -24,107 55,118 134,151 62,25 109,-49 125,-100 23,-73 25,-132 47,-197 18,-49 37,-159 -52,-139 z m 5794,75 c -71,15 -46,85 11,125 223,159 350,218 550,428 130,137 -99,89 115,251 199,151 -76,119 135,317 31,28 149,125 126,182 -13,32 -146,-41 -167,-52 -89,-51 -375,-204 -472,-195 -89,10 -106,117 16,147 260,67 543,410 612,418 110,10 224,-229 691,-118 35,9 159,52 164,-17 5,-79 -281,-158 -322,-162 -174,-23 -318,38 -363,-78 -28,-76 -94,-159 27,-140 53,8 219,58 196,-62 -20,-102 -520,-218 -386,-260 124,-41 73,-133 233,-25 62,42 156,38 116,-36 -75,-137 70,-39 92,-115 10,-39 -116,-150 -142,-173 -77,-68 -190,-102 -164,61 21,125 -226,-318 -327,-265 -92,49 116,251 152,370 31,102 -73,11 -112,-33 -102,-116 -636,-600 -781,-568 z m -4795,94 c -60,27 93,165 146,227 135,153 522,498 597,654 47,96 -99,21 -121,7 -68,-41 -326,-284 -380,-224 -44,53 54,141 79,173 81,97 310,331 346,442 21,65 -66,219 20,240 76,19 120,-126 120,-167 2,-141 -81,-230 30,-203 87,21 138,1 124,-103 -23,-167 -186,-375 -204,-457 -17,-77 305,273 311,279 152,146 638,754 765,826 80,45 89,-31 15,-130 -193,-253 -391,-503 -602,-739 -135,-151 -228,-309 -400,-415 -173,-106 -250,-306 -317,-304 -92,2 7,209 15,252 17,81 -104,-57 -116,-67 -49,-42 -360,-320 -428,-291 z m -772,468 c -65,16 -209,199 -239,251 -35,63 -46,151 -139,118 -148,-55 -117,226 -249,358 -93,92 -230,96 -326,181 -107,94 -225,193 -307,310 -99,140 -173,94 -277,294 -71,136 -103,123 -215,197 -127,85 -206,138 -348,199 -92,38 -161,91 -5,91 82,0 260,-48 321,24 59,69 -66,106 -39,171 28,65 139,10 211,114 92,136 130,191 220,-28 54,-132 91,-356 188,-457 80,-81 44,101 88,123 73,36 91,-270 345,-461 138,-104 223,-87 69,62 -109,105 -181,238 -226,380 -10,32 -61,139 -23,170 46,36 69,-108 226,-235 240,-194 334,-86 473,-451 26,-69 91,-323 154,-365 86,-60 83,12 135,-220 83,-381 18,-325 46,-616 5,-47 15,-233 -83,-210 z m 368,204 c -93,18 -34,236 -22,290 42,174 205,394 301,562 44,79 54,95 182,63 145,-35 -75,-307 -115,-410 -27,-68 -54,-339 -163,-326 -64,7 -65,43 -98,-65 -11,-34 -33,-124 -85,-114 z m -24,788 c -28,2 -244,110 -268,132 -51,45 -73,115 -113,168 -314,423 -203,512 -250,581 -39,58 -129,-64 -301,11 -166,72 -214,283 -310,419 -72,101 -21,75 -17,153 5,107 -5,254 153,230 98,-15 84,70 180,107 140,53 225,262 395,232 111,-19 81,-159 192,-9 85,115 142,265 315,171 48,-27 88,-46 140,-63 236,-78 -71,-242 -104,-286 -81,-107 411,-342 481,-651 55,-241 -39,-182 -135,-172 -90,9 101,-208 3,-273 -97,-66 -145,155 -198,86 -30,-38 -50,-70 -83,-106 -119,-130 -77,-153 69,-213 208,-84 49,-285 -42,-435 -23,-39 -54,-86 -107,-82 z m 7198,198 c -42,6 -83,30 -125,40 -161,38 -259,42 -420,111 -117,49 -200,87 -325,108 -82,13 49,94 66,103 94,52 375,163 427,236 49,65 -53,83 -106,70 -92,-23 -170,-54 -262,-79 -377,-106 -329,-1 -680,-110 -325,-100 -471,-44 -767,-95 -127,-22 -305,-261 -319,-175 -12,82 88,152 -12,319 -121,202 19,205 -30,290 -48,84 -183,28 -241,-5 -159,-93 -244,-47 -413,-58 -194,-13 -583,-46 -769,-75 -48,-8 -203,-46 -252,-14 -34,23 154,64 162,67 144,37 220,72 390,110 79,17 184,37 264,65 76,28 88,94 15,122 -130,48 -372,4 -462,57 -89,53 10,185 -177,204 -195,20 -131,0 -95,101 8,26 40,72 71,40 24,-25 42,-114 93,-106 37,6 30,149 89,115 74,-41 98,-190 138,-190 69,-1 16,98 47,118 64,41 100,-13 113,-27 65,-67 104,71 177,30 66,-37 -123,-116 -55,-158 53,-33 127,155 193,135 29,-9 -8,-115 40,-254 70,-205 223,-225 149,-128 -34,44 -100,99 -91,161 2,25 91,-16 47,72 -15,30 -112,275 -31,206 34,-30 75,-187 136,-158 41,20 -42,124 9,97 34,-17 96,-120 141,-101 51,19 -49,120 3,141 50,21 128,-120 172,-80 35,30 -70,132 -34,146 13,5 63,-40 98,-48 77,-20 71,-76 151,-8 81,69 94,-6 194,86 13,12 61,71 85,53 44,-31 -107,-87 -57,-123 44,-29 215,50 230,26 22,-37 -299,-95 -237,-162 42,-48 163,84 181,29 16,-48 45,-26 68,-71 43,-82 248,91 294,74 66,-24 -216,-101 -123,-152 45,-25 179,93 192,71 15,-25 -234,-200 -259,-225 -32,-34 -28,-120 120,1 1,2 123,105 129,91 13,-34 -239,-324 -257,-355 -25,-44 18,-106 95,2 14,21 172,233 190,233 20,0 -17,-183 -15,-206 5,-60 68,-83 70,30 0,6 44,314 70,248 7,-19 33,-141 75,-106 39,34 -41,160 1,223 14,20 59,-131 106,-79 36,38 -53,97 -20,137 15,17 111,171 125,89 17,-95 127,20 177,21 54,1 36,-99 137,-18 90,70 91,-49 163,-54 65,-6 30,103 133,67 136,-48 58,11 177,47 110,35 64,-39 37,-180 -8,-38 -46,-133 0,-148 77,-27 66,297 109,204 67,-139 88,6 122,57 17,25 107,79 104,10 -5,-94 -2,-40 3,-126 10,-162 30,-278 -54,-425 -44,-79 -54,-201 27,-132 113,100 58,112 136,-85 25,-65 27,-70 -51,-91 -98,-26 11,-138 99,-129 72,6 73,-146 160,-119 91,27 -23,129 -17,169 9,51 79,81 49,141 -36,70 -82,-43 -127,24 -64,93 -82,10 -130,306 -5,33 -26,167 37,108 34,-31 96,-99 147,-70 69,37 -36,150 -73,182 -99,82 -149,133 -135,258 9,67 133,-171 198,-150 60,18 -25,111 18,140 79,53 53,46 195,-82 82,-74 142,-172 166,-75 0,0 10,231 85,111 25,-39 19,-156 94,-119 44,21 65,36 124,38 228,6 -51,-173 7,-228 43,-41 213,159 260,98 41,-55 7,-236 -83,-156 -64,56 -112,-6 18,-71 112,-57 228,168 273,145 37,-19 -75,-298 41,-292 33,2 77,88 78,13 0,-69 -12,-163 28,-221 62,-92 108,139 124,46 50,-286 118,-188 -172,-299 -294,-112 -508,3 -658,10 -137,5 -347,-53 -470,-111 -78,-37 -245,-139 -338,-123 z m -11531,564 c 71,81 151,125 132,168 -56,119 135,173 24,201 -115,29 -21,72 -51,109 -34,39 -136,-13 -109,111 13,64 25,102 25,169 1,224 68,133 225,258 87,68 234,84 152,107 -168,47 -59,101 -83,159 -43,105 193,151 95,189 -56,22 -192,58 -133,144 20,29 43,45 47,82 5,61 68,87 107,127 21,22 37,84 81,68 49,-18 -121,-165 -132,-181 -12,-23 6,-45 -11,-66 -35,-46 -107,-77 14,-117 81,-27 192,-49 65,-142 -144,-106 -50,-57 -88,-159 -35,-90 212,-46 173,-123 -19,-37 -167,-54 -288,-148 -129,-100 -175,-1 -178,-216 -3,-139 -81,-217 48,-203 130,15 22,-77 46,-110 22,-34 127,18 130,-41 3,-55 -144,-135 -116,-181 32,-51 80,-10 -48,-137 -217,-212 -164,-286 -203,-319 -77,-66 40,207 76,251 z m 6553,684 c -271,8 -713,310 -1040,411 -401,124 -360,156 -694,304 -96,42 -180,82 -283,109 -146,38 -47,99 -21,108 24,6 47,-17 69,-15 48,2 90,56 135,7 16,-18 -64,-107 -2,-108 58,-1 68,164 138,50 64,-104 90,68 107,-30 20,-111 152,-1 238,-90 77,-79 118,31 155,-31 49,-81 188,41 139,-75 -27,-63 36,-90 130,-45 188,92 64,-119 211,-8 78,60 66,-25 128,-34 35,-5 20,-24 -3,-29 -32,-8 -100,-2 -99,-51 2,-108 370,57 409,32 69,-46 -69,-140 2,-167 48,-20 132,108 174,127 24,11 41,-39 71,-27 20,7 68,61 94,41 36,-28 -27,-86 -50,-101 -20,-13 -98,-32 -44,-68 47,-32 153,19 185,53 30,32 88,111 108,16 24,-122 68,9 122,-42 32,-32 82,59 108,24 26,-37 -154,-124 -80,-159 24,-12 74,41 130,66 69,30 125,95 173,60 87,-59 -100,-79 -137,-162 -18,-44 42,-37 78,-21 23,8 124,78 137,48 26,-58 -95,-121 -133,-127 -74,-13 -153,1 -227,-8 -67,-8 -385,-60 -428,-58 z m -1836,235 c -135,20 -281,148 -164,225 l 256,123 c 132,56 93,-59 124,-89 39,-37 123,0 141,-69 10,-41 -37,-63 -65,-77 -75,-37 -204,-125 -292,-113 z m 3684,221 c -67,16 35,261 -76,327 -68,40 -101,-17 -148,39 -68,83 -37,-92 -93,-92 -74,0 -109,191 -170,160 -35,-17 -31,-159 -114,-234 -57,-53 -86,13 -41,122 46,108 -75,-44 -164,12 -71,44 109,95 -58,128 -269,52 -118,78 -169,115 -118,87 -233,179 -379,218 -18,5 -121,14 -98,59 62,125 908,-158 1062,-89 284,127 634,-254 935,-243 59,3 84,49 19,73 -64,23 -390,65 -334,184 50,107 223,32 300,8 293,-86 439,-118 748,-124 93,-2 348,22 303,-138 -23,-80 -24,-66 91,-103 70,-24 403,-69 370,-150 -25,-61 -250,-23 -429,-75 -35,-10 -85,50 -76,-18 23,-161 -108,13 -112,16 -46,42 -18,-138 -87,-118 -58,17 28,188 -69,188 -74,0 -140,0 -212,25 -109,38 23,-142 -135,-67 -88,43 66,-100 -12,-106 -115,-7 -242,278 -279,130 -16,-64 40,-291 -95,-110 -183,244 -183,108 -235,107 -51,-1 -27,-39 -22,-85 7,-75 -48,-57 -85,-9 -27,34 -103,173 -93,46 2,-27 18,-210 -43,-196 z m -6116,79 c -67,16 -307,211 -380,258 -307,194 -654,388 -1002,498 -41,13 -180,50 -213,64 -95,40 167,197 234,168 62,-25 33,-171 166,-25 88,97 131,-10 218,-113 54,-63 89,-48 83,20 -4,34 -34,174 51,95 102,-96 47,98 159,-29 35,-41 76,-29 82,24 10,100 52,32 102,24 101,-15 93,44 213,-25 137,-80 141,61 227,40 20,-5 15,-56 53,-75 55,-28 40,-96 110,-58 77,42 100,33 184,5 47,-16 -2,-125 99,-65 98,60 70,-50 143,10 65,53 63,-84 152,-2 85,78 99,-88 300,-64 86,12 -24,-123 45,-146 68,-22 52,128 132,71 85,-61 88,32 133,-34 37,-54 81,-145 147,-167 74,-26 7,114 15,129 6,11 96,14 105,13 45,-1 63,-74 102,-88 61,-22 90,49 104,-68 6,-52 59,-63 85,-19 69,118 65,-16 137,24 35,19 94,20 130,0 22,-13 -8,-120 -32,-121 -17,-1 -166,38 -254,42 -405,23 -484,60 -909,-27 C 402,5441 440,5383 77,5229 30,5208 -40,5157 -94,5169 Z m -2177,1295 c -114,-14 15,90 -81,96 -59,4 -1,80 37,223 15,57 28,104 35,164 12,95 109,26 303,41 105,8 -34,97 116,85 49,-5 170,11 194,-44 39,-86 -248,-69 -176,-200 44,-82 166,-67 242,-72 216,-14 422,-14 638,-35 127,-12 163,-94 23,-87 -143,9 -601,76 -706,-23 -74,-69 65,-150 -59,-158 -185,-12 -382,33 -566,10 z"
           class="fil0 str0"
           inkscape:connector-curvature="0"
           style="fill:#000000;stroke:#000000" />
      </g>
    </g>
    <g
       id="layer1-5"
       transform="matrix(0.21367155,0,0,0.20404432,180.94845,706.66463)">
      <g
         id="g3738"
         transform="matrix(0.841184,0,0,0.841184,335.891,1406.05)">
        <path
           style="fill:#000000;fill-opacity:1;stroke:none;stroke-width:8;stroke-miterlimit:4;stroke-opacity:1"
           id="path3575"
           d="m 41.34375,-1380.8438 c -109.807617,1e-4 -207.14433,69.5574 -267.25,176.5 -2.14258,2.4153 -4.28058,4.8788 -6.40625,7.375 -108.98354,127.9865 -156.36302,310.94706 -129.375,362.9063 15.03146,28.93964 38.25048,-10.21183 74.46875,-72.3125 17.75716,214.80843 158.16412,382.28125 328.5625,382.28125 0.737856,0 1.482027,-0.025 2.21875,-0.0312 0.611348,0.01 1.23161,-0.005 1.84375,0 0.736723,0.006 1.480894,0.0312 2.21875,0.0312 170.39838,0 310.80534,-167.47282 328.5625,-382.28125 36.21828,62.10067 59.43731,101.25214 74.46875,72.3125 26.98802,-51.95924 -20.39145,-234.9198 -129.375,-362.9063 -2.12525,-2.4958 -4.23285,-4.9602 -6.375,-7.375 -60.10564,-106.943 -157.4734,-176.4999 -267.28125,-176.5 -1.041762,0 -2.085503,0.019 -3.125,0.031 -1.049868,-0.013 -2.104071,-0.031 -3.15625,-0.031 z"
           inkscape:connector-curvature="0" />
        <path
           style="fill:url(#linearGradient3969-5);fill-opacity:1;stroke:none;stroke-width:8;stroke-miterlimit:4;stroke-opacity:1"
           id="path3649"
           d="m 103.33459,-1168.2362 c 144.29182,126.2443 255.40476,338.34526 148.66541,511.07995 -0.16658,4.4308 2.53416,8.46654 6.69361,10.00234 4.15945,1.5358 8.83483,0.22354 11.58764,-3.25234 52.79502,-66.32148 88.58779,-156.09028 96.90625,-256.71875 0.33531,-3.9648 3.11097,-7.15046 7,-8.03125 3.889,-0.8808 7.79872,0.81158 9.8125,4.25 18.01391,30.88706 32.7057,55.62587 43.90625,68.53125 2.48419,2.87043 6.35118,4.13317 10.05063,3.28196 3.69946,-0.8512 6.62573,-3.67699 7.60562,-7.34446 2.92984,-10.8813 4.4013,-27.08161 2.59375,-47.4375 -2.27182,-25.5843 -8.93399,-56.74792 -19.8125,-90.34375 -21.75654,-67.19025 -60.39255,-144.02465 -113.9375,-206.90625 -2.13995,-2.5131 -4.23499,-4.9121 -6.28125,-7.2188 -0.42637,-0.4857 -0.74891,-0.9654 -1.0625,-1.5312 -0.0104,-0.021 -0.0208,-0.042 -0.0312,-0.062 -18.66061,-33.2019 -40.90691,-62.6251 -65.96651,-87.3288 -41.89363,49.4946 -59.82964,69.3613 -137.73015,119.0301 z"
           inkscape:connector-curvature="0" />
        <g
           id="g3580"
           transform="translate(105.351,0)">
          <path
             style="opacity:1;fill:#000000;fill-opacity:1;stroke:none;stroke-width:8;stroke-miterlimit:4;stroke-dasharray:none;stroke-opacity:1"
             id="path3447"
             transform="matrix(1.06913,0,0,0.823039,4.24548,-308.646)"
             d="m 151.54114,-1324.6687 a 218.65221,294.42276 0 1 1 -437.30442,0 218.65221,294.42276 0 1 1 437.30442,0 z"
             inkscape:connector-curvature="0" />
          <path
             style="fill:#fdca01;fill-rule:evenodd;stroke:none;stroke-width:1px;stroke-linecap:butt;stroke-linejoin:miter;stroke-opacity:1"
             id="path2402"
             d="m -127.77534,-1290.818 c 11.87754,-6.3929 71.516445,-25.6474 124.5507489,1.9122 1.9644921,1.1227 3.40931974,1.9103 1.2356683,5.3726 l -59.9722532,75.2726 -65.686524,-78.2282 c -2.07022,-2.3485 -2.93429,-2.6405 -0.12764,-4.3292 z"
             inkscape:connector-curvature="0" />
          <path
             style="fill:url(#linearGradient3971-9);fill-opacity:1;fill-rule:evenodd;stroke:none;stroke-width:1px;stroke-linecap:butt;stroke-linejoin:miter;stroke-opacity:1"
             id="path3182"
             d="m -67.375,-1300.9062 c -17.465457,0.2114 -32.97649,3.2762 -44.0625,6.5 -1.72229,0.5008 -2.31347,0.818 -2.6875,0.9374 -2.87787,0.9121 -5.11059,3.2004 -5.95155,6.0999 -0.84096,2.8994 -0.17918,6.0273 1.76405,8.3377 l 10.78125,12.8437 c 2.37541,2.8337 6.23703,3.9353 9.75,2.7813 13.995522,-4.575 34.596755,-4.8748 62.59375,7.0624 3.734312,1.5816 8.064939,0.4831 10.59375,-2.6874 l 14.40625,-18.0938 c 1.7616273,-2.2222 2.3784969,-5.1423 1.666186,-7.8871 -0.7123108,-2.7449 -2.671259,-4.9965 -5.291186,-6.0817 -18.163592,-7.4924 -36.716333,-10.0164 -53.5625,-9.8124 z"
             inkscape:connector-curvature="0" />
          <g
             id="g3498">
            <path
               style="fill:url(#radialGradient3973-7);fill-opacity:1;stroke:none;stroke-width:8;stroke-miterlimit:4;stroke-dasharray:none;stroke-opacity:1"
               id="path3194"
               transform="matrix(0.67391,-0.164362,0.164362,0.67391,520.172,-458.938)"
               d="m -528.91586,-1565.3472 a 100.40916,176.77669 0 1 1 -200.81831,0 100.40916,176.77669 0 1 1 200.81831,0 z"
               inkscape:connector-curvature="0" />
            <path
               style="fill:#000000;fill-opacity:1;stroke:none;stroke-width:8;stroke-miterlimit:4;stroke-dasharray:none;stroke-opacity:1"
               id="path3196"
               transform="matrix(0.747307,-0.135653,0.143425,0.706812,433.558,-359.351)"
               d="m -415.77878,-1542.7197 a 55.154327,114.5513 0 1 1 -110.30865,0 55.154327,114.5513 0 1 1 110.30865,0 z"
               inkscape:connector-curvature="0" />
            <path
               style="fill:url(#linearGradient3975-4);fill-opacity:1;stroke:none;stroke-width:8;stroke-miterlimit:4;stroke-dasharray:none;stroke-opacity:1"
               id="path3408"
               transform="matrix(0.693664,0,0,0.693664,171.335,-338.313)"
               d="m -449.71991,-1537.0629 a 26.870058,72.124893 0 1 1 -53.74011,0 26.870058,72.124893 0 1 1 53.74011,0 z"
               inkscape:connector-curvature="0" />
            <path
               style="fill:url(#linearGradient3977-7);fill-opacity:1;stroke:none;stroke-width:8;stroke-miterlimit:4;stroke-opacity:1"
               id="path3479"
               d="m -181.375,-1527.125 c -2.74575,0.052 -5.43354,0.4524 -8.0625,1.0938 -14.75062,3.5975 -26.38723,16.1555 -33.65625,34.9062 -5.17443,13.3477 -7.85809,29.6407 -8.03125,47.5 -0.0372,3.0524 1.6481,5.8655 4.35698,7.2727 2.70888,1.4073 5.97943,1.1688 8.45552,-0.6165 18.01581,-43.8465 51.11465,-51.0232 92.21875,-31.625 2.86233,-0.1259 5.44426,-1.7573 6.78688,-4.2883 1.34262,-2.5311 1.24537,-5.5837 -0.25563,-8.0241 -17.70681,-28.6722 -40.17199,-46.627 -61.8125,-46.2188 z"
               inkscape:connector-curvature="0" />
          </g>
          <g
             id="g3504"
             transform="matrix(-1,0,0,1,-131.932,1.55572e-5)">
            <path
               style="fill:url(#radialGradient3979-8);fill-opacity:1;stroke:none;stroke-width:8;stroke-miterlimit:4;stroke-dasharray:none;stroke-opacity:1"
               id="path3506"
               transform="matrix(0.67391,-0.164362,0.164362,0.67391,520.172,-458.938)"
               d="m -528.91586,-1565.3472 a 100.40916,176.77669 0 1 1 -200.81831,0 100.40916,176.77669 0 1 1 200.81831,0 z"
               inkscape:connector-curvature="0" />
            <path
               style="fill:#000000;fill-opacity:1;stroke:none;stroke-width:8;stroke-miterlimit:4;stroke-dasharray:none;stroke-opacity:1"
               id="path3508"
               transform="matrix(0.747307,-0.135653,0.143425,0.706812,433.558,-359.351)"
               d="m -415.77878,-1542.7197 a 55.154327,114.5513 0 1 1 -110.30865,0 55.154327,114.5513 0 1 1 110.30865,0 z"
               inkscape:connector-curvature="0" />
            <path
               style="fill:url(#linearGradient3981);fill-opacity:1;stroke:none;stroke-width:8;stroke-miterlimit:4;stroke-dasharray:none;stroke-opacity:1"
               id="path3510"
               transform="matrix(0.693664,0,0,0.693664,171.335,-338.313)"
               d="m -449.71991,-1537.0629 a 26.870058,72.124893 0 1 1 -53.74011,0 26.870058,72.124893 0 1 1 53.74011,0 z"
               inkscape:connector-curvature="0" />
            <path
               style="fill:url(#linearGradient3983);fill-opacity:1;stroke:none;stroke-width:8;stroke-miterlimit:4;stroke-opacity:1"
               id="path3512"
               d="m -181.375,-1527.125 c -2.74575,0.052 -5.43354,0.4524 -8.0625,1.0938 -14.75062,3.5975 -26.38723,16.1555 -33.65625,34.9062 -5.17443,13.3477 -7.85809,29.6407 -8.03125,47.5 -0.0372,3.0524 1.6481,5.8655 4.35698,7.2727 2.70888,1.4073 5.97943,1.1688 8.45552,-0.6165 18.01581,-43.8465 51.11465,-51.0232 92.21875,-31.625 2.86233,-0.1259 5.44426,-1.7573 6.78688,-4.2883 1.34262,-2.5311 1.24537,-5.5837 -0.25563,-8.0241 -17.70681,-28.6722 -40.17199,-46.627 -61.8125,-46.2188 z"
               inkscape:connector-curvature="0" />
          </g>
          <path
             style="fill:url(#linearGradient3985-3);fill-opacity:1;stroke:none;stroke-width:8;stroke-miterlimit:4;stroke-opacity:1"
             id="path3528"
             d="m -67.5,-1630.9688 c -110.8405,0 -202.99404,83.8388 -220.4375,194.0626 -0.60223,3.805 0.65717,7.676 3.375,10.4062 2.71782,2.7302 6.56735,3.9913 10.375,3.4062 9.52391,-1.4622 19.29955,-2.6706 29.25,-3.5312 -1.68187,-21.5334 0.11871,-41.7643 5.09375,-59.25 7.62137,-26.7867 23.42078,-48.273 47.03125,-54.0312 3.65865,-0.8927 7.41768,-1.3664 11.1875,-1.4376 22.06128,-0.4158 42.82949,12.6658 59.875,32.6563 17.04551,19.9905 30.811782,47.4708 38.5625,79.25 2.263977,9.2827 3.89786,18.4665 4.9375,27.4687 7.075746,3.0612 14.117517,6.4284 21.125,10.125 0.811981,-12.1804 2.756737,-24.8083 5.875,-37.5937 7.750718,-31.7792 21.51699,-59.2595 38.5625,-79.25 17.04551,-19.9905 37.81372,-33.0721 59.875,-32.6563 3.76982,0.071 7.52885,0.5449 11.1875,1.4376 23.61047,5.7583 39.40988,27.2445 47.03125,54.0312 7.62137,26.7867 7.81359,60.0285 -0.59375,94.5 -8.40755,34.4723 -23.86615,63.9184 -42.96875,84.1875 -3.005714,3.1893 -6.118511,6.173 -9.34375,8.9063 11.055937,14.0961 21.716818,29.5654 31.90625,46.5 2.031544,3.382 5.59505,5.5447 9.53125,5.8124 3.936199,0.2679 7.74785,-1.393 10.21875,-4.4687 32.29977,-40.1907 51.84375,-91.9189 51.84375,-148.4687 0,-128.3636 -100.222171,-232.0626 -223.5,-232.0626 z"
             inkscape:connector-curvature="0" />
        </g>
        <path
           style="opacity:1;fill:url(#radialGradient3987-0);fill-opacity:1;stroke:none;stroke-width:8;stroke-miterlimit:4;stroke-dasharray:none;stroke-opacity:1"
           id="path3612"
           transform="matrix(0.686137,0,0,0.686137,14.8172,-246.864)"
           d="m 376.96573,-849.60126 a 330.45697,428.37015 0 1 1 -660.91394,0 330.45697,428.37015 0 1 1 660.91394,0 z"
           inkscape:connector-curvature="0" />
        <path
           style="opacity:1;fill:url(#linearGradient3989-7);fill-opacity:1;stroke:none;stroke-width:8;stroke-miterlimit:4;stroke-dasharray:none;stroke-opacity:1"
           id="path3662"
           transform="matrix(0.939508,-0.463166,0.496742,0.894085,495.761,-125.783)"
           d="m 169.63873,-866.05237 a 77.335304,160.71053 0 1 1 -154.670606,0 77.335304,160.71053 0 1 1 154.670606,0 z"
           inkscape:connector-curvature="0" />
        <g
           id="g3714"
           transform="matrix(-0.863589,0,0,0.73698,50.0962,-119.082)">
          <path
             style="fill:url(#radialGradient3991-6);fill-opacity:1;stroke:none;stroke-width:8;stroke-miterlimit:4;stroke-opacity:1"
             id="path3716"
             d="m 334.69753,-551.12848 0,57.1293 c 0,31.6496 -25.47966,57.1293 -57.12929,57.1293 l -156.1534,0 c -31.649614,0 -57.129284,-25.4797 -57.129284,-57.1293 l 0,-57.1293 c 15.62716,-118.8036 253.004314,-114.4282 270.411974,0 z"
             inkscape:connector-curvature="0" />
          <path
             style="fill:url(#linearGradient3993-6);fill-opacity:1;stroke:none;stroke-width:8;stroke-miterlimit:4;stroke-opacity:1"
             id="path3718"
             transform="translate(943.882,1014.88)"
             d="m -745.125,-1646.1562 c -27.50993,-0.2371 -54.82412,5.2177 -77,16.25 -7.11732,3.5408 -13.54421,7.6076 -19.34375,12.1562 -3.70581,2.9089 -5.00493,7.9389 -3.1712,12.2785 1.83373,4.3396 6.34614,6.9139 11.01495,6.284 48.59846,-6.6572 89.93406,-1.0568 124.59375,13.4063 29.38579,12.2621 53.8683,30.752 74.46875,52.7187 2.93212,3.1296 7.47956,4.1482 11.46656,2.5686 3.987,-1.5797 6.60283,-5.4364 6.59594,-9.7249 l 0,-24.125 c 0.006,-0.5754 -0.0361,-1.1502 -0.125,-1.7187 -4.25734,-25.4594 -20.59224,-45.0832 -43.65625,-58.625 -23.63018,-13.8742 -54.17638,-21.2043 -84.84375,-21.4687 z"
             inkscape:connector-curvature="0" />
        </g>
        <g
           id="g3708"
           transform="matrix(0.913964,0,0,0.77997,31.7073,-100.301)">
          <path
             style="fill:url(#radialGradient3995-5);fill-opacity:1;stroke:none;stroke-width:8;stroke-miterlimit:4;stroke-opacity:1"
             id="rect3687"
             d="m 334.69753,-551.12848 0,57.1293 c 0,31.6496 -25.47966,57.1293 -57.12929,57.1293 l -156.1534,0 c -31.649614,0 -57.129284,-25.4797 -57.129284,-57.1293 l 0,-57.1293 c 15.62716,-118.8036 253.004314,-114.4282 270.411974,0 z"
             inkscape:connector-curvature="0" />
          <path
             style="fill:url(#linearGradient3997-3);fill-opacity:1;stroke:none;stroke-width:8;stroke-miterlimit:4;stroke-opacity:1"
             id="path3698"
             transform="translate(943.882,1014.88)"
             d="m -745.125,-1646.1562 c -27.50993,-0.2371 -54.82412,5.2177 -77,16.25 -7.11732,3.5408 -13.54421,7.6076 -19.34375,12.1562 -3.70581,2.9089 -5.00493,7.9389 -3.1712,12.2785 1.83373,4.3396 6.34614,6.9139 11.01495,6.284 48.59846,-6.6572 89.93406,-1.0568 124.59375,13.4063 29.38579,12.2621 53.8683,30.752 74.46875,52.7187 2.93212,3.1296 7.47956,4.1482 11.46656,2.5686 3.987,-1.5797 6.60283,-5.4364 6.59594,-9.7249 l 0,-24.125 c 0.006,-0.5754 -0.0361,-1.1502 -0.125,-1.7187 -4.25734,-25.4594 -20.59224,-45.0832 -43.65625,-58.625 -23.63018,-13.8742 -54.17638,-21.2043 -84.84375,-21.4687 z"
             inkscape:connector-curvature="0" />
        </g>
      </g>
    </g>
  </g>
</svg>
